<?xml version="1.0" standalone="no"?>
<!DOCTYPE svg PUBLIC "-//W3C//DTD SVG 20010904//EN"
 "http://www.w3.org/TR/2001/REC-SVG-20010904/DTD/svg10.dtd">
<svg version="1.0" xmlns="http://www.w3.org/2000/svg"
 width="700.000000pt" height="700.000000pt" viewBox="0 0 700.000000 700.000000"
 preserveAspectRatio="xMidYMid meet">
<metadata>
Created by potrace 1.14, written by Peter Selinger 2001-2017
</metadata>
<g transform="translate(0.000000,700.000000) scale(0.100000,-0.100000)"
fill="#000000" stroke="none">
<path d="M3280 6994 c-19 -2 -84 -9 -145 -14 -639 -62 -1264 -315 -1795 -726
-149 -115 -481 -446 -595 -594 -410 -532 -653 -1132 -727 -1795 -17 -155 -17
-575 0 -730 75 -673 332 -1300 748 -1820 114 -143 339 -372 484 -494 537 -451
1163 -717 1885 -803 142 -17 586 -17 730 0 682 79 1268 318 1802 734 138 107
389 351 512 498 451 538 717 1162 803 1885 16 139 16 595 0 730 -77 629 -275
1158 -620 1649 -234 333 -577 668 -917 896 -460 308 -968 495 -1535 566 -117
15 -552 27 -630 18z m2376 -1259 c8 -11 14 -44 14 -81 l0 -62 -59 -53 c-32
-30 -143 -108 -247 -174 -408 -259 -701 -463 -855 -596 -85 -73 -143 -60 -61
14 20 19 82 75 137 125 119 108 320 324 555 597 94 110 183 209 197 219 36 28
83 35 202 33 88 -2 105 -5 117 -22z m-1603 -1480 c191 -33 372 -134 594 -332
l84 -75 37 28 c68 51 186 148 330 272 79 68 149 121 156 119 28 -9 10 -42 -84
-148 -268 -300 -631 -769 -882 -1139 -354 -521 -532 -876 -545 -1090 -5 -73
-3 -92 15 -126 27 -53 101 -120 167 -150 l53 -25 51 20 c192 76 542 292 723
446 l52 45 21 -20 c18 -19 18 -23 5 -33 -8 -7 -81 -65 -162 -130 -210 -168
-481 -359 -670 -472 -255 -154 -245 -150 -428 -150 -182 0 -185 1 -257 98 -57
77 -105 179 -134 283 -17 64 -20 96 -16 169 12 209 121 404 487 866 84 107
158 201 164 209 6 8 -27 -19 -74 -60 -440 -392 -1201 -1010 -1738 -1413 -100
-76 -194 -142 -208 -147 -34 -13 -169 -13 -218 1 -26 7 -57 29 -91 63 -288
296 -232 1022 125 1597 301 485 881 927 1535 1171 146 55 284 94 413 118 126
23 375 26 495 5z"/>
<path d="M3223 4110 c-329 -86 -689 -381 -960 -786 -252 -378 -414 -872 -415
-1264 0 -207 33 -341 106 -427 l27 -32 51 20 c333 131 1466 1056 2201 1796
l128 129 -168 165 c-242 237 -416 353 -599 399 -103 26 -270 26 -371 0z"/>
</g>
</svg>
